<svg width="27" height="29" viewBox="0 0 27 29" fill="none" xmlns="http://www.w3.org/2000/svg">
<path d="M2.08696 22.4619H2.23874L9.56161 20.8683C9.70425 20.8446 9.83642 20.7785 9.941 20.6786L22.348 8.27152C23.2544 7.36714 23.7601 6.13704 23.7519 4.85675C23.7536 3.56652 23.2496 2.32705 22.348 1.404C21.4437 0.497656 20.2136 -0.00802347 18.9333 0.000183014C17.6448 -0.0112189 16.4089 0.510583 15.5185 1.44198L3.1493 13.849C3.04022 13.9368 2.96069 14.056 2.92162 14.1905L1.32811 21.5134C1.28461 21.7763 1.36914 22.0441 1.55579 22.2343C1.69588 22.3772 1.88681 22.4591 2.08696 22.4619ZM18.9333 1.51787C20.7564 1.51773 22.2343 2.99555 22.2345 4.81863C22.2345 4.83134 22.2344 4.84404 22.2342 4.85675C22.2467 5.72526 21.904 6.56123 21.2857 7.1712L16.6188 2.46634C17.2337 1.85536 18.0664 1.51403 18.9333 1.51787ZM15.5564 3.56674L20.2233 8.23361L9.40976 19.0092L4.74288 14.3802L15.5564 3.56674ZM4.13582 15.898L7.89207 19.6542L3.0734 20.7166L4.13582 15.898Z" fill="#1666C5"/>
<path d="M26.1801 26.5598H0.758846C0.339734 26.5598 0 26.8995 0 27.3187C0 27.7378 0.339734 28.0775 0.758846 28.0775H26.1801C26.5993 28.0775 26.939 27.7378 26.939 27.3187C26.939 26.8995 26.5993 26.5598 26.1801 26.5598Z" fill="#1666C5"/>
</svg>
