<svg width="38" height="38" viewBox="0 0 38 38" fill="none" xmlns="http://www.w3.org/2000/svg">
<circle cx="19.2713" cy="18.9837" r="18.4715" fill="white"/>
<path d="M10.9014 12.4082H14.673L15.0398 11.3078C15.2708 10.6149 15.9167 10.1494 16.647 10.1494H20.2894C21.0196 10.1494 21.6655 10.6149 21.8965 11.3078L22.2633 12.4082H23.1739V11.467C23.1739 10.7405 23.765 10.1494 24.4915 10.1494H25.2444C25.9709 10.1494 26.562 10.7405 26.562 11.467V12.4764C27.4492 12.7101 28.1055 13.5191 28.1055 14.4787V24.2666C28.1055 25.4082 27.1766 26.3371 26.035 26.3371H10.9014C9.7597 26.3371 8.83087 25.4082 8.83087 24.2666V14.4787C8.83087 13.337 9.7597 12.4082 10.9014 12.4082ZM25.4326 11.467C25.4326 11.3632 25.3482 11.2788 25.2444 11.2788H24.4915C24.3877 11.2788 24.3033 11.3632 24.3033 11.467V12.4082H25.4326V11.467ZM9.96024 24.2666C9.96024 24.7855 10.3824 25.2077 10.9014 25.2077H26.035C26.5539 25.2077 26.9761 24.7855 26.9761 24.2666V14.4787C26.9761 13.9597 26.5539 13.5375 26.035 13.5375H21.8563C21.6132 13.5375 21.3975 13.382 21.3206 13.1514L20.8251 11.6649C20.7481 11.434 20.5328 11.2788 20.2894 11.2788H16.647C16.4035 11.2788 16.1882 11.434 16.1113 11.6649L15.6158 13.1514C15.5389 13.382 15.3231 13.5375 15.0801 13.5375H10.9014C10.3824 13.5375 9.96024 13.9597 9.96024 14.4787V24.2666Z" fill="#292929"/>
<path d="M11.6912 15.7972C11.3791 15.7972 11.1261 15.5442 11.1261 15.2321C11.1261 14.92 11.3791 14.667 11.6912 14.667C12.0033 14.667 12.2563 14.92 12.2563 15.2321C12.2563 15.5442 12.0033 15.7972 11.6912 15.7972Z" fill="#2D2D2D"/>
<path d="M24.1155 14.667H25.2449C25.5567 14.667 25.8096 14.9198 25.8096 15.2317C25.8096 15.5435 25.5567 15.7964 25.2449 15.7964H24.1155C23.8037 15.7964 23.5508 15.5435 23.5508 15.2317C23.5508 14.9198 23.8037 14.667 24.1155 14.667Z" fill="#2D2D2D"/>
<path d="M18.4681 24.0784C21.2704 24.0784 23.5503 21.7985 23.5503 18.9962C23.5503 16.1939 21.2704 13.9141 18.4681 13.9141C15.6658 13.9141 13.386 16.1939 13.386 18.9962C13.386 21.7985 15.6658 24.0784 18.4681 24.0784ZM18.4681 15.0434C20.6477 15.0434 22.4209 16.8167 22.4209 18.9962C22.4209 21.1758 20.6477 22.949 18.4681 22.949C16.2886 22.949 14.5153 21.1758 14.5153 18.9962C14.5153 16.8167 16.2886 15.0434 18.4681 15.0434Z" fill="#2D2D2D"/>
<path d="M18.4681 21.8195C20.0249 21.8195 21.2915 20.5529 21.2915 18.996C21.2915 17.4392 20.0249 16.1726 18.4681 16.1726C16.9112 16.1726 15.6446 17.4392 15.6446 18.996C15.6446 20.5529 16.9112 21.8195 18.4681 21.8195ZM18.4681 17.302C19.4022 17.302 20.1621 18.0619 20.1621 18.996C20.1621 19.9301 19.4022 20.6901 18.4681 20.6901C17.534 20.6901 16.774 19.9301 16.774 18.996C16.774 18.0619 17.534 17.302 18.4681 17.302Z" fill="#2D2D2D"/>
</svg>
