<svg width="1133" height="562" viewBox="0 0 1133 562" fill="none" xmlns="http://www.w3.org/2000/svg">
<path d="M276.914 611.035C276.752 608.406 277.076 598.061 277.9 596.581C278.724 595.101 280.858 593.297 281.513 593.135C282.168 592.972 290.703 586.235 291.196 586.073C291.689 585.911 294.316 578.356 295.133 576.221C295.956 574.085 296.611 571.788 296.611 569.977C296.611 568.173 297.266 561.598 297.597 560.618C297.928 559.631 299.238 559.962 299.238 559.962L301.21 558.651C301.21 558.651 304.33 550.934 302.851 546.826C302.851 546.826 314.668 542.224 315.816 541.9C316.964 541.569 320.576 540.751 320.576 540.751C320.576 540.751 321.231 535.169 320.738 530.899C320.246 526.628 317.95 467.825 316.14 456.655C314.337 445.484 308.915 414.441 306.781 407.217C304.647 399.993 293.161 390.628 289.548 386.519C285.936 382.41 282.654 381.755 281.344 381.917C280.034 382.079 277.407 380.768 276.583 379.289C275.759 377.809 272.316 375.842 272.316 375.842C272.316 375.842 272.971 367.632 272.971 366.97C272.971 366.314 271.661 364.834 271.661 364.834C271.661 364.834 275.597 354.158 276.583 352.678C277.569 351.198 282.161 344.63 282.161 344.63C282.161 344.63 282.161 346.603 283.309 346.603C284.457 346.603 289.379 338.393 289.379 336.088C289.379 333.791 288.394 331.486 288.394 331.486C288.394 331.486 291.02 322.614 291.351 320.972C291.682 319.33 292.337 316.046 291.682 314.404C291.027 312.761 289.386 310.957 289.055 309.315C288.724 307.673 287.907 306.524 287.907 306.524C287.907 306.524 283.971 302.254 282.654 301.76C281.344 301.267 279.041 299.463 278.386 298.638C277.731 297.814 274.119 297.652 273.626 297.49C273.133 297.328 270.182 295.516 269.027 295.685C267.879 295.848 266.238 296.017 265.415 296.179C264.591 296.341 262.133 296.017 261.478 296.179C260.823 296.341 259.013 297.003 258.358 297.659C257.703 298.314 254.253 297.165 253.435 298.483C252.612 299.794 251.957 299.963 250.809 300.95C249.661 301.936 248.675 300.949 247.689 302.098C246.703 303.247 244.569 307.68 244.245 309.329C243.914 310.971 243.097 310.809 243.259 312.451C243.421 314.093 243.259 314.748 242.604 316.228C241.949 317.708 241.456 316.228 241.949 317.708C242.442 319.188 242.111 320.992 242.111 320.992C242.111 320.992 240.308 321.323 238.83 323.127C237.351 324.932 238.175 326.743 238.006 327.729C237.844 328.716 237.513 331.838 237.844 333.149C238.175 334.46 239.154 335.284 239.647 335.446C240.14 335.608 242.273 334.791 242.273 334.791C242.273 334.791 242.273 337.751 242.435 339.061C242.598 340.372 241.78 343.825 241.45 345.468C241.119 347.11 239.809 352.036 239.809 352.036L238.006 352.86C238.006 352.86 232.259 357.462 231.766 357.949C231.273 358.442 230.618 358.773 230.618 358.773C230.618 358.773 214.865 358.773 211.576 357.624C208.294 356.475 199.266 355.651 197.625 356.313C195.984 356.969 192.541 356.151 188.928 358.78C185.315 361.408 181.872 362.719 178.752 369.95C175.632 377.173 175.632 375.863 175.632 375.863C175.632 375.863 169.069 388.512 166.935 392.783C164.801 397.054 154.787 417.914 152.822 420.543C150.85 423.171 147.075 433.024 146.09 434.173C145.104 435.321 142.97 444.025 142.153 445.18C141.329 446.329 139.033 458.155 139.033 460.128C139.033 462.101 140.181 466.534 140.181 466.534C140.181 466.534 143.301 469.656 142.97 472.285C142.639 474.913 144.28 483.617 144.942 487.887C145.597 492.158 145.928 493.962 145.597 495.442C145.266 496.922 145.928 504.146 146.583 506.45C147.238 508.748 149.54 514.336 150.195 516.14C150.85 517.945 152.329 518.438 152.329 518.438L150.357 524.682C150.357 524.682 151.343 528.459 151.836 530.432C152.329 532.405 152.984 561.807 152.822 564.267C152.66 566.733 151.674 581.512 151.674 584.634C151.674 587.499 148.075 635.68 146.09 649.235H272.525C274.213 635.727 277.036 612.947 276.914 611.035Z" fill="#B8BABB"/>
<path d="M394.234 251.769C393.835 251.188 393.214 250.607 393.214 250.607C393.214 250.607 389.217 250.282 388.204 249.992L388.129 251.12C388.129 251.12 388.744 251.377 389.075 251.701C389.399 252.026 389.514 252.357 389.764 252.465C390.02 252.573 390.817 252.83 391.107 253.154C391.398 253.478 391.762 253.519 392.127 253.769C392.492 254.026 394.308 254.208 394.997 254.276C395.686 254.35 396.813 254.492 396.813 254.492C396.813 254.492 394.632 252.35 394.234 251.769Z" fill="#B8BABB"/>
<path d="M487.717 625.165C486.812 614.921 485.009 591.722 485.461 588.263C485.914 584.796 486.818 582.992 486.515 580.127C486.211 577.261 485.009 551.806 485.157 549.549C485.306 547.292 484.853 541.717 484.853 541.717C484.853 541.717 490.12 549.401 492.383 551.657C494.638 553.914 496.596 552.408 497.049 552.563C497.501 552.712 495.394 556.78 497.049 560.395C498.703 564.01 500.357 567.774 500.661 569.281C500.965 570.788 500.661 576.059 500.81 577.566L498.703 579.823C498.703 579.823 495.239 579.072 494.638 580.573C494.037 582.08 495.09 583.134 495.09 583.134C495.09 583.134 493.436 584.789 494.341 585.843C495.246 586.898 496.144 586.749 496.144 586.749C496.144 586.749 496.292 588.404 497.798 588.404C499.304 588.404 500.357 588.1 500.357 588.1C500.357 588.1 502.012 588.1 503.821 587.796C505.631 587.492 507.738 585.985 508.791 585.688C509.845 585.384 511.803 584.181 511.803 584.181L512.856 582.221C512.856 582.221 513.457 581.769 514.362 580.113C515.267 578.458 515.112 573.187 515.719 572.281C516.32 571.376 516.469 570.322 516.624 568.97C516.773 567.612 513.012 561.74 512.262 559.929C511.513 558.124 508.65 550.441 508.65 550.441C508.65 550.441 513.316 551.948 514.673 551.043C516.03 550.137 515.726 547.279 515.726 547.279L518.886 547.13C518.886 547.13 522.952 543.366 522.499 543.211C522.047 543.062 519.94 532.514 520.244 531.764C520.548 531.013 513.167 507.207 512.417 504.95C511.668 502.693 512.417 474.974 511.513 467.142C510.608 459.31 505.192 439.274 504.888 435.963C504.585 432.652 503.686 420.144 502.782 417.887C501.877 415.63 496.009 407.494 493.598 406.893C491.187 406.291 487.122 404.48 487.122 404.48C487.122 404.48 481.707 400.115 480.647 400.115C479.593 400.115 479.289 399.21 479.289 399.21L479.141 398.46L475.38 396.351C475.38 396.351 476.582 394.54 476.737 392.432C476.885 390.324 476.588 389.418 476.588 389.418C476.588 389.418 478.094 387.31 478.398 386.107C478.702 384.904 478.702 384.904 478.702 384.904C478.702 384.904 483.368 382.039 485.475 377.525C487.581 373.004 488.783 368.037 488.034 364.267C487.284 360.503 487.433 344.535 485.623 340.467C483.814 336.399 479.755 329.925 476.892 327.662C474.029 325.405 471.024 322.688 469.971 322.087C468.917 321.485 465.757 320.58 465.757 320.58C464.778 320.445 459.66 319.141 456.513 319.337C453.366 319.533 451.401 321.898 449.632 323.668C447.863 325.439 445.506 326.425 443.933 328C442.359 329.574 440.786 331.736 439.408 333.703C438.031 335.669 438.227 336.852 437.444 338.818C436.66 340.785 437.248 345.116 436.066 346.096C434.884 347.083 434.884 347.671 434.297 349.441C433.709 351.211 434.101 351.799 434.101 353.773C434.101 355.739 435.087 360.07 435.283 361.841C435.478 363.611 436.269 364.199 436.464 365.578C436.66 366.956 438.429 370.105 439.219 372.072C440.003 374.038 439.611 374.43 439.611 375.613C439.611 376.795 439.611 383.877 439.611 383.877L435.485 387.418C435.485 387.418 434.898 385.647 434.898 384.073C434.898 382.498 432.933 376.795 432.541 375.025C432.149 373.254 431.359 372.464 431.359 370.301C431.359 368.139 431.947 365.186 431.164 362.429C430.38 359.672 430.178 359.28 430.38 356.726C430.576 354.164 429.989 348.461 429.989 348.461L432.94 344.528C432.94 344.528 432.744 341.575 432.744 339.609C432.744 337.642 429.597 333.115 428.219 331.737C426.842 330.358 423.499 326.425 424.485 324.655C425.471 322.884 426.646 320.127 425.667 315.411C424.681 310.687 417.017 311.674 414.262 312.066C411.507 312.457 411.115 303.801 411.115 303.801C409.603 297.652 408.921 292.07 408.61 288.09L408.266 285.772C408.266 285.772 404.964 265 404.511 262.142C404.059 259.276 403.005 255.06 402.256 253.708C401.506 252.35 398.191 249.789 397.137 249.492C396.084 249.188 392.167 246.782 391.87 246.025C391.566 245.275 388.71 243.315 388.71 243.315C388.71 243.315 390.965 237.74 389.162 236.538C387.886 235.686 386.002 238.497 384.8 241.808C383.598 245.12 383.443 247.383 383.598 248.735C383.747 250.093 383.294 252.803 383.747 255.364C384.199 257.925 384.348 260.033 385.557 260.939C386.759 261.844 390.675 265.007 392.032 266.21C393.39 267.412 394.288 269.075 394.288 269.075C394.288 269.075 395.193 281.88 396.097 289.408C397.002 296.942 397.9 311.248 399.258 316.073C400.615 320.891 400.912 321.945 400.912 322.999C400.912 324.053 399.109 325.107 398.501 326.466C397.9 327.824 377.129 359.003 374.118 366.382C371.106 373.761 363.584 385.816 362.976 387.168C362.375 388.526 349.126 393.04 346.716 394.702C344.305 396.358 340.091 411.123 338.741 412.028C337.384 412.934 353.043 425.888 357.405 429.199C361.767 432.51 367.338 437.788 369.897 438.842C372.457 439.896 371.856 440.498 375.468 441.707C379.081 442.91 381.64 443.964 382.241 445.626C382.842 447.282 384.652 451.654 385.854 453.458C387.056 455.269 385.705 466.865 385.55 471.839C385.401 476.812 383.443 490.665 383.294 493.226C383.146 495.787 380.735 516.12 380.134 519.289C379.533 522.452 376.522 545.353 375.772 549.867C375.023 554.388 370.958 575.477 371.255 580.897C371.558 586.323 369.749 602.136 370.201 606.96C370.654 611.778 367.642 624.733 365.684 628.199C363.725 631.666 359.512 645.221 359.512 645.221C359.512 645.221 366.123 647.694 371.18 649.215H488.588C488.392 639.815 488.135 629.868 487.717 625.165ZM394.997 254.276C394.308 254.202 392.492 254.019 392.127 253.769C391.762 253.512 391.398 253.479 391.107 253.154C390.817 252.83 390.02 252.573 389.763 252.465C389.507 252.357 389.399 252.026 389.075 251.701C388.751 251.377 388.129 251.12 388.129 251.12L388.204 249.992C389.223 250.282 393.214 250.607 393.214 250.607C393.214 250.607 393.829 251.188 394.234 251.769C394.632 252.35 396.813 254.492 396.813 254.492C396.813 254.492 395.686 254.35 394.997 254.276ZM468.222 392.736C467.979 393.472 467.81 394.459 467.81 394.459C467.81 394.459 467.317 394.047 466.581 393.804C465.845 393.56 464.69 393.641 464.69 393.641C464.69 393.641 464.69 392.736 464.528 390.682C464.366 388.627 465.696 386.492 465.676 386.742C465.595 387.891 466.662 387.566 467.317 387.81C467.972 388.053 467.729 388.465 467.81 389.121C467.891 389.776 468.141 390.269 468.303 391.418C468.472 392.574 468.472 391.999 468.222 392.736Z" fill="#B8BABB"/>
<path d="M622.653 647.951C622.653 645.978 622.437 644.228 623.963 643.572C625.496 642.917 627.684 641.383 628.123 638.754C628.562 636.126 629.217 629.334 629.217 629.334L644.97 622.982C644.97 622.982 623.085 578.741 621.775 575.025C620.465 571.301 617.839 553.347 617.4 548.745C616.961 544.143 614.334 513.485 613.895 507.795C613.456 502.098 613.679 476.481 612.801 467.277C611.923 458.08 611.052 453.039 610.613 449.1C610.174 445.16 609.08 441.437 609.303 440.119C609.519 438.808 612.146 438.585 613.679 440.998C615.212 443.41 618.055 442.971 620.243 442.532C622.43 442.092 622.214 440.998 624.179 439.464C626.151 437.93 627.022 441.214 628.994 435.524C630.966 429.828 630.304 426.104 633.153 423.043C635.996 419.975 641.25 416.252 642.999 412.751C644.748 409.244 640.372 386.472 635.996 377.93C631.621 369.389 622.862 339.386 622.43 333.034C621.991 326.682 618.71 315.735 619.587 309.599C620.465 303.47 621.336 300.618 620.243 295.584C619.149 290.55 619.365 288.793 617.839 287.043C616.306 285.293 615.428 284.853 615.428 284.853C615.428 284.853 613.456 288.36 612.362 288.137C611.268 287.921 611.707 266.46 610.829 260.763C609.952 255.066 609.735 229.881 608.419 227.253C607.109 224.624 605.576 219.367 606.447 215.211C607.325 211.048 608.858 206.886 609.074 204.919C609.29 202.946 612.578 197.473 613.672 195.939C614.766 194.405 616.515 190.905 616.515 190.905C616.515 190.905 613.672 188.931 611.917 190.688L615.421 183.681C615.421 183.681 614.543 181.052 610.607 183.025C606.67 184.999 606.231 187.627 605.137 190.249C604.043 192.878 599.445 200.98 598.573 202.514C597.696 204.048 596.386 203.825 594.853 206.676C593.32 209.521 591.787 213.468 591.787 213.468C591.787 213.468 589.16 205.582 585.663 206.46C582.158 207.339 583.036 207.771 584.569 210.4C586.101 213.028 588.289 217.846 588.728 219.82C589.167 221.793 590.7 225.077 592.233 227.043C593.766 229.017 595.737 228.577 596.17 232.517C596.608 236.456 595.953 256.823 595.731 264.27C595.515 271.717 594.198 284.637 593.543 288.144C592.888 291.651 592.665 296.902 592.01 298.22C591.355 299.53 588.505 302.382 587.634 305.666C586.756 308.95 582.604 314.424 583.036 321.871C583.475 329.317 584.13 328.439 584.13 328.439C584.13 328.439 581.287 333.473 581.942 336.764C582.597 340.048 583.475 339.832 583.036 340.927C582.597 342.021 579.531 344.65 578.66 346.839C578.41 347.461 578.127 347.995 577.863 348.481C577.654 346.474 577.235 344.528 576.472 342.9C573.407 336.332 566.404 322.094 562.683 320.56C558.963 319.026 546.268 317.931 544.958 318.809C543.648 319.688 542.331 322.317 541.021 322.317C539.711 322.317 537.956 322.1 537.956 322.1L536.862 324.513C536.862 324.513 535.768 324.729 533.357 326.047L529.42 326.702L529.204 329.77C529.204 329.77 522.857 334.149 520.885 341.156C518.913 348.164 518.697 359.334 514.538 364.591C514.538 364.591 517.11 362.01 518.636 358.239C517.185 363.294 514.423 372.828 513.012 377.072L517.826 364.152C517.826 364.152 518.481 373.572 515.638 378.822C512.795 384.08 500.978 398.75 497.913 402.696C494.847 406.636 490.91 407.298 487.629 408.825L492.004 407.947C492.004 407.947 483.685 415.394 481.281 418.678C481.281 418.678 488.939 411.447 492.22 409.92C492.22 409.92 480.842 425.03 480.187 427.881C480.187 427.881 490.033 414.522 492.22 413.643C492.22 413.643 480.187 453.722 479.087 460.946C477.993 468.176 470.335 506.714 469.896 510.005C469.457 513.289 467.492 518.985 469.896 518.985C472.307 518.985 476.46 521.614 476.46 521.614L475.582 526.432C475.582 526.432 478.648 529.061 483.239 529.277C483.239 529.277 483.023 548.11 482.584 550.738C482.145 553.367 482.368 557.091 483.023 560.591C483.678 564.098 484.772 577.018 485.211 578.768C485.65 580.519 487.183 581.613 487.183 581.613C487.183 581.613 491.781 590.155 493.091 591.689C494.401 593.223 500.972 598.041 502.066 598.696C502.275 598.824 502.619 599.061 503.024 599.358C500.884 611.218 498.676 624.868 498.568 631.328C498.473 636.741 499.02 643.14 499.824 649.215H622.228C622.491 648.762 622.653 648.343 622.653 647.951ZM504.436 591.689C504.301 591.053 503.76 589.074 502.288 589.256C502.288 589.256 499.223 583.782 499.007 582.465C498.791 581.154 496.819 574.802 496.819 574.802C496.819 574.802 496.819 573.268 498.129 573.491C499.439 573.707 499.223 577.214 500.317 578.748C501.39 580.248 502.464 584.458 505.996 583.613C505.563 585.83 505.023 588.6 504.436 591.689ZM580.193 358.651C579.754 359.746 578.005 358.435 578.005 359.091C578.005 359.746 577.127 362.375 577.127 361.719C577.127 361.361 577.83 357.813 577.992 353.597C579.052 355.475 580.517 357.84 580.193 358.651Z" fill="#B8BABB"/>
<path d="M93.4195 600.196C93.7504 593.297 98.7811 554.428 98.7811 551.36C98.7811 548.292 103.042 546.758 103.042 546.758L110.166 544.346L112.171 551.319C112.171 551.319 109.889 561.368 114.913 564.564C116.02 565.267 119.174 567.382 122.672 569.132C126.176 570.882 142.038 568.896 135.907 552.691C132.625 544.008 130.498 541.102 129.228 540.278C128.297 540.366 127.675 540.406 127.675 540.406C127.675 540.406 128.128 539.568 129.228 540.278C131.72 540.035 136.467 539.372 137.743 537.778C139.492 535.588 144.746 532.96 144.746 532.96L144.307 525.513C144.307 525.513 149.561 524.634 151.748 523.323C153.936 522.012 124.61 448.424 121.983 440.106C119.356 431.78 119.795 417.333 118.046 410.758C116.297 404.19 118.046 394.993 115.419 391.925C112.793 388.857 110.166 380.539 106.229 379.221C102.292 377.91 97.0389 373.524 95.2899 372.653C93.541 371.774 88.2875 366.524 88.7264 365.206C89.1654 363.895 87.4164 363.456 87.4164 363.456L90.4821 352.941L94.4189 348.562C94.4189 348.562 103.17 342.866 101.86 337.615L99.6724 335.426C99.6724 335.426 100.55 330.608 101.86 327.979C103.17 325.351 102.299 318.343 102.299 318.343C102.299 318.343 102.022 317.627 101.131 316.931C100.233 316.228 99.7602 314.694 99.3145 314.356C98.8688 314.018 98.2813 313.572 98.3084 313.431C98.3354 313.289 98.673 312.201 98.673 312.201C98.673 312.201 97.2752 314.045 96.9376 314.072C96.6 314.1 97.6061 312.755 97.6399 312.647C97.6669 312.532 97.444 312.059 97.444 311.89C97.444 311.721 98.3084 309.788 97.9775 308.842C97.9775 308.842 96.9444 311.39 96.6607 311.471C96.3839 311.552 96.0192 311.025 96.0192 311.025C96.0192 311.025 96.9444 308.673 96.6607 307.781C96.6607 307.781 95.2089 309.768 94.8983 309.653C94.5877 309.538 96.2961 305.903 94.2838 304.646C94.2838 304.646 94.5944 308.984 93.6423 308.93C92.6902 308.876 91.4883 306.16 91.3464 305.714C91.2046 305.268 91.4275 304.261 90.84 303.416C90.2525 302.578 89.4422 301.848 88.6589 301.348C88.6589 301.348 91.0358 304.065 89.584 304.004C89.584 304.004 88.9425 302.267 88.0444 301.821C87.1531 301.375 86.255 301.287 86.0592 300.895C85.8633 300.504 85.2218 300.166 85.4987 299.186C85.7756 298.206 86.7547 297.564 86.7547 297.564C86.7547 297.564 85.1341 297.733 84.6276 299.078C84.1212 300.422 84.6276 298.936 84.6276 298.936L85.2961 297.51C85.2961 297.51 83.8713 298.152 83.4257 298.855C82.98 299.557 82.2777 299.389 82.2777 299.389C82.2777 299.389 82.7504 298.132 83.8983 297.821C83.8983 297.821 83.2839 297.483 80.7111 298.774C80.7111 298.774 80.6571 297.922 81.9536 297.564C81.9874 297.557 82.0211 297.551 82.0481 297.537C82.0549 297.537 82.0616 297.537 82.0684 297.53C82.0346 297.537 82.0144 297.544 82.0144 297.544C82.0144 297.544 80.3397 297.287 78.5773 298.74C78.5773 298.74 78.8542 297.456 80.7854 297.226C82.7166 297.003 80.6436 297.172 80.6436 297.172C80.6436 297.172 76.0586 297.929 74.6608 300.22C74.6608 300.22 73.182 302.288 73.182 302.375C73.182 302.456 74.1341 298.456 76.9567 297.645C76.9567 297.645 72.9592 297.956 71.6154 301.031L72.3987 298.598C72.3987 298.598 70.2176 301.314 69.9678 303.632C69.9678 303.632 69.2992 301.369 70.4404 299.936C70.4404 299.936 66.8616 302.565 67.2532 305.619C67.2532 305.619 66.5509 303.294 67.5368 301.544C66.8683 302.592 65.0721 305.565 64.9573 307.437L64.7345 308.106C64.7345 308.106 64.0322 304.828 65.1802 303.321C65.1802 303.321 61.7971 307.349 61.9052 309.592L61.6553 306.261C61.6553 306.261 60.4331 310.295 61.0881 312.099C61.0881 312.099 58.1305 313.41 58.2993 315.877C58.4613 318.343 56.9893 321.296 57.1513 324.749C57.3134 328.196 56.6584 330.993 56.6584 330.993C56.6584 330.993 55.6725 330.007 54.6866 332.142C53.7008 334.277 54.0316 338.217 54.0316 339.366C54.0316 340.514 55.6725 343.305 56.6584 343.474C57.6443 343.636 57.9684 344.623 58.4613 346.434C58.9543 348.238 60.2643 351.198 60.2643 351.198L60.4263 356.617L55.9967 363.848L44.6726 361.875C44.6726 361.875 30.7217 351.36 30.3908 350.705C30.06 350.049 29.7358 348.9 29.7358 348.9C29.7358 348.9 26.4541 346.603 26.1232 346.109C25.7923 345.616 10.8556 322.458 6.4259 320.161C1.99621 317.863 1.50327 312.444 0.186508 310.309C-1.12349 308.173 -6.05288 291.09 -6.70788 288.955C-7.36288 286.82 -6.70788 282.218 -6.70788 279.103C-6.70788 275.988 -8.01788 273.521 -7.85582 270.23C-7.69376 266.946 -6.21494 253.972 -6.21494 253.972C-6.21494 253.972 -9.33463 253.316 -10.6446 252.823C-10.6446 252.823 -10.1517 247.404 -9.00376 246.086C-7.85582 244.775 -3.25731 240.173 -2.60231 238.693C-1.94731 237.213 -0.468487 230.314 -0.468487 229.334C-0.468487 228.348 0.0244484 227.037 0.0244484 227.037C0.0244484 227.037 6.4259 225.888 7.08091 225.726C7.08091 225.726 8.55972 222.935 2.97533 223.921L0.510635 222.773C0.510635 222.773 8.71503 222.279 10.5247 221.948C12.3277 221.617 12.8206 219.651 10.5247 219.482C8.22884 219.32 3.29945 219.644 3.29945 219.644C3.29945 219.644 2.64445 217.346 1.16564 217.509C-0.313179 217.671 -2.77112 219.313 -4.412 219.313C-6.05288 219.313 -9.01051 219.313 -9.01051 219.313C-9.01051 219.313 2.80651 206.339 2.96858 203.71C2.96858 203.71 2.14476 200.588 -0.806114 204.203C-3.757 207.818 -5.40463 209.461 -5.40463 209.461C-5.40463 209.461 -2.93994 200.426 -4.58081 200.757C-6.22169 201.088 -10.8202 212.089 -11.7993 214.062C-12.7852 216.036 -14.757 218.333 -15.7361 218.664C-16.722 218.995 -18.5249 219.32 -19.0178 221.293C-19.5108 223.266 -19.6729 224.253 -19.8417 226.219C-20.0037 228.192 -20.1725 233.612 -20.8275 236.402C-21.4825 239.193 -21.4825 241.822 -22.6305 244.288C-23.7784 246.755 -25.2572 248.89 -25.0952 249.87C-24.9331 250.857 -26.574 249.539 -26.574 249.539C-26.574 249.539 -27.3978 256.6 -27.5599 257.918C-27.7219 259.229 -29.3628 264.162 -28.7078 268.433C-28.0528 272.703 -30.1866 277.305 -30.1866 281.083C-30.1866 284.86 -27.8907 302.274 -28.0528 307.856C-28.2149 313.437 -29.6937 320.999 -30.3487 325.263C-31.0037 329.534 -40.5248 380.12 -41.0178 387.188C-41.5107 394.25 -43.8066 397.04 -42.9895 398.851C-42.1657 400.656 -47.9122 410.839 -47.4192 413.637C-46.9263 416.427 -61.3701 435.315 -57.2645 436.139C-53.1589 436.963 -35.2713 434.659 -29.0319 434.497C-22.7925 434.335 -15.574 429.571 -11.6373 428.091C-7.70051 426.611 -1.46112 423.165 0.510635 423.658C2.48239 424.151 5.59533 430.064 5.10915 432.53C4.61621 434.997 0.841515 446.985 -0.96143 451.418C-2.76437 455.85 -6.53907 470.305 -7.85582 476.217C-9.16582 482.13 -9.16582 486.239 -10.3205 489.361C-11.4685 492.482 -17.8699 510.876 -19.1867 517.12C-20.4967 523.364 -24.6022 547.015 -25.5881 555.225C-26.574 563.436 -27.0669 569.517 -28.7078 573.295C-30.3487 577.072 -33.4684 596.128 -35.4401 603.021C-37.4119 609.92 -37.4119 615.008 -39.3769 618.786C-41.3487 622.563 -44.4616 630.611 -46.4334 633.733C-48.4051 636.855 -50.046 642.606 -50.046 642.606C-50.046 642.606 -47.0884 645.728 -46.4334 647.863C-46.2916 648.329 -46.0822 648.789 -45.8594 649.228H90.4416C91.7516 631.861 93.1967 604.899 93.4195 600.196Z" fill="#B8BABB"/>
<path d="M174.147 540.406C174.147 540.406 174.768 540.372 175.7 540.278C174.599 539.568 174.147 540.406 174.147 540.406Z" fill="#B8BABB"/>
<path d="M809.68 649.14C810.666 644.214 810.99 640.599 810.666 637.646C810.335 634.686 810.335 630.415 810.335 628.449C810.335 626.483 815.912 588.37 815.912 581.147C815.912 573.916 818.539 564.719 818.539 564.719L822.807 567.679L827.729 566.693C827.729 566.693 826.744 567.679 825.434 570.308C824.124 572.937 824.124 580.16 824.448 582.465C824.772 584.769 823.138 592.979 823.138 595.608C823.138 598.236 826.095 598.892 826.095 598.892C826.095 598.892 830.694 591.337 830.363 588.053C830.032 584.769 832.335 585.755 832.004 586.742C831.673 587.729 833.314 590.682 833.314 593.641C833.314 596.601 834.624 596.601 832.328 598.567C830.032 600.541 830.356 602.507 828.715 602.183C827.074 601.852 825.434 600.872 824.117 601.852C822.807 602.838 820.835 600.865 820.835 603.494C820.835 606.122 818.863 605.136 820.835 606.122C822.807 607.109 824.448 608.751 826.089 608.096C827.729 607.44 832.328 607.44 833.969 606.122C835.61 604.811 837.906 604.149 838.891 602.838C839.877 601.527 843.814 593.641 844.145 591.344C844.476 589.046 843.814 584.776 843.49 583.134C843.159 581.491 841.194 574.923 841.194 573.937C841.194 572.95 843.166 571.308 843.166 570.321C843.166 569.335 844.152 565.72 844.152 565.72L855.638 564.077C855.638 564.077 871.723 562.104 874.349 560.793C876.976 559.482 873.363 541.082 872.708 537.142L875.666 535.5C875.666 535.5 870.413 500.679 869.758 495.098C869.103 489.516 857.286 456.337 855.969 448.782C854.659 441.227 851.046 427.104 849.074 422.171C847.103 417.245 842.18 411.657 838.898 406.406C835.616 401.149 826.095 399.182 823.144 396.878C820.187 394.581 816.25 394.249 815.595 392.939C814.94 391.628 813.623 389.323 813.954 387.357C814.285 385.384 813.954 380.133 813.954 380.133L809.032 377.836C809.032 377.836 810.017 369.294 810.672 367.652C811.327 366.01 815.271 360.097 815.271 356.482C815.271 356.482 818.229 355.171 818.884 352.867C819.539 350.569 819.539 345.643 819.539 343.67C819.539 341.697 817.567 339.399 817.567 339.399C817.567 339.399 818.553 334.473 818.553 332.831C818.553 331.189 818.884 329.216 818.222 326.918C817.567 324.621 816.912 321.337 815.595 320.35C814.285 319.363 810.672 314.768 810.672 314.768C810.672 314.768 806.736 309.842 802.468 309.187C802.468 309.187 795.574 308.2 793.933 308.531C792.292 308.862 796.229 306.889 796.229 306.889C796.229 306.889 792.947 307.22 790.975 308.531C789.003 309.842 789.665 307.545 789.665 307.545C789.665 307.545 785.067 307.214 781.785 310.829C778.503 314.444 777.848 314.768 775.545 316.742C773.25 318.715 774.56 320.026 772.264 322.985C769.968 325.945 768.327 325.283 768.327 328.567C768.327 331.851 769.637 335.791 770.299 337.44C770.954 339.082 770.299 341.055 770.299 341.055C770.299 341.055 768.003 344.67 768.658 347.954C769.313 351.238 771.615 354.522 772.27 355.84C772.925 357.151 775.552 356.496 775.552 356.496C775.552 356.496 777.848 361.422 777.848 363.719C777.848 366.017 778.503 372.261 778.503 372.261C778.503 372.261 777.193 375.22 775.876 376.531C774.566 377.842 770.299 382.775 770.299 380.147C770.299 377.518 776.207 374.565 775.221 373.247C774.235 371.936 767.341 362.733 763.073 357.482C758.806 352.225 747.32 341.055 745.017 341.386C742.721 341.717 741.404 343.028 739.763 341.055C738.123 339.082 723.679 297.692 722.369 294.077C721.059 290.462 712.848 276.339 711.862 273.379C710.876 270.419 710.876 269.439 710.552 267.466C710.221 265.493 708.256 256.296 708.256 254.654C708.256 253.012 710.883 243.484 711.214 241.842C711.544 240.2 712.199 236.585 711.214 234.618C710.228 232.645 708.587 229.037 707.932 227.719C707.277 226.408 710.228 215.894 710.228 215.894L726.312 214.583C726.312 214.583 732.221 188.958 729.925 177.133C729.925 177.133 723.686 167.936 723.361 166.618C723.031 165.307 723.031 165.307 723.031 165.307C723.031 165.307 719.749 166.618 718.432 166.618C717.115 166.618 710.228 165.632 710.228 165.632L696.115 153.151C696.115 153.151 694.163 159.462 691.759 168.193C690.213 165.983 688.302 164.118 685.939 162.902C675.256 157.374 673.797 153.779 674.061 149.515C674.216 149.529 674.371 149.542 674.533 149.542C677.025 149.542 679.044 147.522 679.044 145.028C679.044 143.278 678.045 141.758 676.586 141.008C676.789 139.73 676.64 136.568 676.64 136.021C676.64 135.446 677.295 132.169 679.996 128.817C682.697 125.459 681.718 120.384 681.718 120.384C681.556 121.533 681.718 126.033 679.672 126.276C677.626 126.52 675.992 130.784 675.992 130.784C675.992 129.716 675.911 129.148 678.119 126.114C680.327 123.087 679.753 120.215 679.753 120.215C679.179 121.526 678.524 122.756 677.052 124.067C675.58 125.378 675.006 126.607 675.006 126.607C675.418 121.695 678.443 117.762 678.443 117.762C678.2 118.086 676.971 119.235 675.661 120.384C674.351 121.533 673.696 125.134 673.696 125.134L673.615 123.087C674.925 118.499 673.203 117.025 673.203 117.025C673.284 118.093 674.351 119.647 672.71 121.857C671.076 124.067 671.157 129.392 671.157 129.392C669.928 126.932 670.502 123.904 670.502 123.904C669.685 125.378 669.928 129.06 670.826 130.452C671.724 131.844 671.974 135.527 671.805 138.805C671.758 139.73 671.859 140.555 672.021 141.271C670.813 142.082 670.016 143.461 670.016 145.028C670.016 146.995 671.272 148.664 673.028 149.285C672.906 152.103 673.851 156.773 680.354 160.28C685.277 162.935 688.673 165.084 691.368 169.605C687.606 183.417 682.974 202.48 682.974 212.623L696.533 225.266L696.128 226.489C696.128 226.489 693.826 226.084 693.42 228.523C693.015 230.963 691.658 230.557 692.063 233.537C692.468 236.517 691.388 243.572 692.603 246.957C693.826 250.35 695.446 254.823 695.851 256.857C696.257 258.891 696.797 272.582 696.797 272.582L695.575 273.94C695.575 273.94 695.439 282.887 696.385 286.955C697.33 291.023 699.228 316.647 700.315 321.391C701.402 326.134 705.325 365.584 707.223 371.822C709.12 378.059 706.683 406.122 707.628 413.981C708.573 421.847 704.92 427.401 707.088 432.01C709.255 436.619 709.525 438.382 710.336 442.045C711.146 445.707 713.584 452.755 714.671 454.114C715.751 455.472 719.276 459.675 720.768 459.533C722.261 459.398 722.936 458.587 722.936 458.587C722.936 458.587 721.991 462.655 721.444 468.622C720.897 474.589 716.703 491.394 716.028 493.158C715.353 494.922 712.638 505.632 712.233 508.072C711.828 510.511 711.011 513.768 710.606 514.579C710.201 515.39 704.913 532.203 703.563 535.46C702.206 538.71 696.925 570.977 697.06 581.147C697.06 581.147 680.334 615.698 678.362 638.369C677.998 642.558 677.93 646.167 678.072 649.262H809.66C809.673 649.174 809.673 649.161 809.68 649.14Z" fill="#B8BABB"/>
<path d="M361.396 111.829C359.654 110.288 358.715 109.396 358.715 109.396C358.992 109.869 359.965 110.727 361.396 111.829Z" fill="#B8BABB"/>
<path d="M440.597 197.02C440.577 197.006 440.55 197 440.523 196.993C440.57 197.006 440.597 197.02 440.597 197.02Z" fill="#B8BABB"/>
<path d="M439.159 193.053C439.402 189.566 437.079 187.965 435.877 187.168C434.675 186.363 428.557 181.721 428.078 180.883C427.727 180.261 424.411 178.802 422.635 177.66C422.912 177.025 423.074 176.329 423.074 175.592C423.074 173.281 421.548 171.328 419.448 170.693C419.455 170.193 419.435 169.673 419.374 169.112C418.631 162.638 413.189 153.968 407.233 149.779C400.96 145.359 401.864 141.649 402.27 140.649C403.944 141.575 405.653 142.481 407.388 143.373C435.634 157.861 450.591 161.902 450.591 161.902L428.274 150.968L427.085 143.366L438.72 121.749L427.085 114.147L422.338 118.188L422.575 112.011C422.575 112.011 410.94 101.558 398.833 103.7C398.833 103.7 386.961 122.229 387.677 129.358C387.677 129.358 368.642 117.431 361.396 111.836C367.129 116.904 381.634 129.02 400.534 139.683C400.014 140.832 398.853 145.048 406.503 150.434C412.527 154.678 417.341 164.327 417.949 169.571C417.99 169.896 417.983 170.193 417.963 170.477C417.956 170.477 417.956 170.477 417.956 170.477C415.127 170.477 412.831 172.767 412.831 175.599C412.831 177.342 413.702 178.883 415.032 179.809C415.302 180.998 415.842 182.336 416.869 183.654C419.867 187.499 425.154 192.182 428.071 195.547C430.995 198.912 429.03 201.433 428.152 203.196C428.152 203.196 429.476 202.115 429.915 200.115C430.354 198.115 429.672 195.067 429.557 195.067C429.557 195.067 431.961 197.75 431.157 201.635C430.36 205.521 431.198 204.156 432.116 205.798C432.116 205.798 431.036 203.717 431.637 202.237C432.238 200.757 432.359 197.392 431.718 195.668C431.076 193.945 430.198 191.465 430.158 191.344C430.117 191.222 436.08 194.466 436.64 198.392C437.201 202.318 438.403 202.757 439.044 203.237C439.044 203.237 436.64 197.669 436.681 195.189C436.721 192.709 436.201 191.425 434.723 189.945C434.723 189.945 438.085 190.546 438.484 193.83C438.862 196.939 440.064 196.851 440.53 197.006C440.206 196.851 438.95 196.094 439.159 193.053Z" fill="#B8BABB"/>
<path d="M77.7807 106.964L72.75 104.119L69.4682 75.2104C69.4682 75.2104 34.0171 109.376 29.8575 112.876C29.8575 112.876 31.6065 135.433 35.7661 148.353L45.6856 137.244C46.5972 139.399 47.6709 141.406 48.8931 143.075C52.3639 147.806 52.0871 153.313 51.3443 156.894C51.2903 156.894 51.243 156.888 51.189 156.888C48.9539 156.888 47.1374 158.631 47.1374 160.773C47.1374 161.408 47.2995 162.01 47.5831 162.544C47.0969 163.422 46.5905 164.888 46.5905 167.2C46.5905 171.619 45.9355 174.545 44.0717 176.755C42.2148 178.964 42.9778 182.431 42.9778 181.458C42.9778 181.383 42.6469 178.89 44.1798 177.606C44.1798 177.606 43.7409 180.099 44.1798 182.742C44.6187 185.377 44.2878 186.161 43.3019 187.093C43.3019 187.093 45.7059 186.026 45.0509 183.458C44.3959 180.89 45.9287 179.322 45.9287 179.322C45.9287 179.322 45.5978 182.674 46.9146 185.384C48.2246 188.094 48.8863 189.519 48.8863 189.519C48.8863 189.519 47.7924 184.668 47.4615 182.958C47.1307 181.248 47.1307 179.322 47.1307 179.322C47.1307 179.322 49.5346 181.89 49.8655 184.742C50.1963 187.593 50.4124 188.377 52.0533 189.377C52.0533 189.377 50.6285 185.742 50.9594 184.1C51.2903 182.458 49.9735 180.322 49.8655 179.822C49.7574 179.322 52.4922 180.89 53.1472 184.316L54.572 187.593C54.572 187.593 53.5861 183.884 53.4781 182.316C53.37 180.748 52.4922 179.532 52.1681 178.964C51.8372 178.397 51.952 176.329 52.1681 174.903C52.3842 173.477 54.1399 170.267 54.0251 168.983C53.9373 167.936 53.917 165.226 53.8562 163.686C54.6936 162.976 55.227 161.935 55.227 160.773C55.227 159.239 54.3019 157.922 52.9581 157.286C53.6604 153.387 52.8704 147.542 46.6917 137.082C46.5702 136.879 46.4689 136.676 46.3609 136.473L48.6635 133.892L61.1355 140.021C61.1355 140.021 67.2601 138.71 70.9808 134.548C74.7015 130.385 79.3 122.283 79.5161 117.465C79.7524 112.653 77.7807 106.964 77.7807 106.964Z" fill="#B8BABB"/>
<path d="M259.094 196.013L260.188 191.634C260.188 191.634 248.587 182.214 239.397 180.464C230.207 178.714 223.204 176.085 223.204 176.085C223.204 176.085 215.081 199.196 209.361 218.286C209.307 218.299 209.253 218.306 209.199 218.319C195.728 220.826 186.801 222.678 182.344 225.401C181.662 224.908 180.825 224.611 179.92 224.611C178.509 224.611 177.26 225.32 176.517 226.401C174.14 226.962 164.173 230.199 171.641 243.788C180.075 259.128 184.674 254.985 190.961 253.147C197.247 251.309 199.854 254.066 200.772 255.141C200.772 255.141 199.084 249.769 190.042 251.918C190.042 251.918 196.943 249.465 199.091 248.235C201.056 247.113 205.317 248.809 206.498 249.931C205.242 248.525 199.516 242.734 193.567 246.701C193.108 247.005 189.428 245.626 187.895 245.322C187.895 245.322 195.87 243.633 198.78 243.329C201.69 243.025 200.927 239.491 200.617 237.653C200.617 237.653 199.543 242.565 194.175 243.025C188.807 243.484 189.117 242.254 188.347 241.491C187.578 240.727 185.586 240.572 183.594 239.957C181.602 239.342 179.299 237.963 180.069 236.429C180.744 235.071 183.58 233.591 182.952 231.571C183.634 230.834 184.059 229.848 184.059 228.76C184.059 227.793 183.729 226.908 183.168 226.199C184.512 225.428 186.335 224.557 188.658 223.847C192.966 222.529 202.872 219.907 209.274 218.597C205.891 229.915 203.379 239.761 203.953 242.444C203.953 242.444 217.957 251.424 220.368 252.958C222.779 254.492 247.723 261.716 247.723 261.716L251.005 244.633C251.005 244.633 262.606 242.444 265.232 239.599C267.859 236.754 278.582 217.042 280.115 212.664C281.648 208.285 281.648 208.285 281.648 208.285L259.094 196.013Z" fill="#B8BABB"/>
<path d="M598.682 37.1727V34.6184L614.523 17.7383L574.291 47.2751C572.576 43.4842 570.969 37.7538 569.801 32.3141C568.91 28.1515 571.644 24.766 574.096 22.6645C574.676 23.401 575.568 23.8808 576.581 23.8808C577.776 23.8808 578.809 23.2118 579.349 22.232C580.76 21.4954 580.76 17.7924 581.496 16.7855C582.293 15.6975 583.232 14.6164 585.042 12.008C586.851 9.40636 590.896 6.65609 590.896 6.65609C589.086 6.51418 585.258 9.4807 585.399 9.19013C585.541 8.89956 587.641 6.80475 588.796 6.36552C589.951 5.93304 590.531 5.49381 590.457 4.41262C590.383 3.32467 589.951 1.87858 589.951 1.87858C589.951 1.87858 587.851 3.18276 588.074 2.96652C588.29 2.75028 589.228 1.66234 589.228 1.66234L587.567 0.432476L587.351 1.01362C587.351 1.01362 585.825 2.98004 584.866 4.31125C585.359 3.399 585.946 2.20969 586.196 1.66234C586.628 0.723051 586.561 0 586.561 0C586.561 0 584.9 2.96653 583.887 4.41262C582.874 5.85871 581.429 5.93304 579.329 8.25084C577.229 10.5686 578.242 12.0147 578.532 14.1095C578.728 15.5489 577.783 16.8733 577.161 17.5694C576.972 17.5356 576.783 17.5085 576.581 17.5085C574.825 17.5085 573.4 18.9344 573.4 20.6913C573.4 20.9481 573.441 21.1913 573.495 21.4346C572.252 21.9685 570.902 23.0632 569.544 25.658C565.81 33.321 570.949 42.8963 573.981 47.4913L567.498 52.2486L534.276 82.9341L555.999 70.9126C557.788 79.8662 571.334 98.5303 571.334 98.5303L575.676 94.4353C575.676 94.4353 575.676 85.9952 575.932 85.2317C576.189 84.4613 579.511 91.1106 579.511 91.1106C579.511 91.1106 584.366 86.252 585.643 83.9477C586.919 81.6434 615.03 53.0054 615.03 53.0054L598.682 37.1727Z" fill="#B8BABB"/>
<path d="M984.916 145.677L975.82 153.664C975.82 153.664 980.979 143.346 981.722 142.19C980.297 142.616 961.397 136.899 954.529 139.906C947.432 143.015 941.443 147.67 941.443 147.67C941.443 147.67 915.716 133.912 914.608 135.02C914.264 135.365 915.979 151.374 917.654 166.314C912.407 161.638 908.558 155.766 909.172 148.772C909.827 141.291 909.672 137.088 909.166 134.656C909.969 133.946 910.482 132.905 910.482 131.743C910.482 130.75 910.104 129.838 909.49 129.155C909.713 126.959 908.733 123.756 908.078 118.769C907.315 112.964 911.252 104.97 911.252 104.97C908.409 106.173 906.221 119.641 905.891 117.998C905.56 116.356 906.654 111.869 907.531 109.457C908.409 107.045 909.388 102.889 908.956 102.781C908.517 102.673 904.797 102.997 904.797 102.997V105.734L903.595 102.889C903.595 102.889 901.299 102.45 902.285 103.544C903.271 104.639 902.501 108.579 902.501 108.579C902.501 105.403 899.658 101.463 900.752 103.652C900.806 103.767 900.86 103.896 900.914 104.031C901.826 106.592 901.555 113.451 900.205 120.404C899.091 126.148 901.663 129.601 902.832 130.831C902.764 131.121 902.724 131.426 902.724 131.736C902.724 133.885 904.466 135.622 906.606 135.622C907.329 135.622 907.997 135.419 908.578 135.081C908.727 135.912 908.747 136.831 908.524 137.811C907.538 142.082 906.336 158.834 911.151 162.01C912.474 162.881 914.851 164.821 917.755 167.112C919.207 179.985 920.604 191.83 920.604 191.83C920.604 191.83 966.954 216.461 972.275 217.353L970.499 188.506C970.499 188.506 972.937 185.174 973.606 184.512C974.274 183.843 985.139 162.76 985.801 161.652C986.469 160.543 984.916 145.677 984.916 145.677Z" fill="#B8BABB"/>
<path d="M981.722 142.19C981.769 142.176 981.803 142.156 981.81 142.129C981.83 142.048 981.796 142.075 981.722 142.19Z" fill="#B8BABB"/>
<path d="M1044.54 646.843C1041.48 640.274 1037.76 618.813 1037.32 609.832C1036.88 600.852 1035.34 571.288 1033.38 565.375C1031.41 559.462 1028.78 549.61 1028.78 549.61L1030.75 542.819C1030.75 542.819 1047.38 549.387 1048.92 549.826C1050.45 550.265 1052.64 552.016 1052.64 552.016L1053.08 554.428C1053.08 554.428 1059.2 555.306 1060.3 555.306C1061.39 555.306 1062.04 556.401 1062.71 556.185C1063.36 555.969 1072.34 554.874 1072.34 554.874V552.029C1072.34 552.029 1075.18 552.468 1075.4 550.056C1075.62 547.643 1073.21 538.447 1072.34 536.257C1071.46 534.068 1060.73 509.761 1058.11 498.591C1055.48 487.421 1039.29 433.112 1037.97 426.104C1036.66 419.097 1036.66 418.218 1036.66 418.218C1036.66 418.218 1032.29 406.832 1029.87 403.764C1027.46 400.696 1017.4 390.188 1017.4 390.188C1017.4 390.188 1018.5 377.707 1016.96 372.889C1015.43 368.071 1013.24 361.942 1013.24 361.28C1013.24 360.624 1015.43 356.246 1015.22 355.367C1015 354.489 1011.93 349.238 1010.62 347.042C1009.31 344.853 1007.11 342.44 1005.36 341.345C1003.61 340.251 1001.2 337.183 1000.11 335.649C999.016 334.115 993.985 332.365 992.452 331.709C990.919 331.054 991.797 326.452 989.825 326.013C987.854 325.574 979.757 325.574 979.102 325.357C978.447 325.141 974.504 320.323 969.034 322.945C963.564 325.574 965.313 321.85 962.248 324.695C959.182 327.54 951.086 332.142 950.208 333.453C949.33 334.764 944.299 337.392 942.55 341.116C940.802 344.839 939.708 352.725 939.708 355.57C939.708 358.415 939.924 364.111 939.924 366.301C939.924 368.49 940.14 369.585 941.673 371.558C943.205 373.531 939.924 376.376 941.673 377.255C943.421 378.133 945.609 379.883 946.487 381.417C947.365 382.951 946.926 385.14 948.891 385.357C950.863 385.573 953.922 388.425 955.238 389.08C956.548 389.736 959.398 392.587 959.837 393.898C960.276 395.209 961.809 398.716 961.809 398.716L958.304 400.25C958.304 400.25 957.21 398.5 954.367 397.838C951.525 397.182 949.114 396.527 947.581 395.209C946.048 393.898 945.393 393.236 943.421 392.58C941.45 391.925 940.356 389.952 940.356 389.952L939.701 386.445C939.701 386.445 937.074 388.418 935.541 387.323C934.008 386.228 933.792 384.917 932.914 384.255C932.037 383.6 931.382 381.843 929.41 381.41C927.438 380.971 926.344 382.289 926.344 382.289L923.717 381.41L920.875 379.66C920.875 379.66 918.903 376.592 918.903 375.937C918.903 375.281 918.025 369.585 916.931 369.146C915.837 368.706 913.865 367.835 913.865 366.078C913.865 364.328 913.21 359.726 912.555 359.07C911.9 358.415 911.462 356.881 910.584 355.563C909.706 354.252 907.741 350.529 906.424 348.556C905.114 346.582 900.955 342.643 900.955 342.643L899.644 340.893C899.644 340.893 894.83 324.905 893.297 315.708C891.764 306.511 891.109 292.935 891.109 291.834C891.109 290.739 892.858 291.834 892.642 290.084C892.426 288.333 891.332 288.11 891.764 286.576C892.203 285.042 893.297 281.758 894.391 280.664C895.485 279.569 897.896 274.967 898.767 273.656C899.645 272.345 900.954 264.236 902.271 262.486C903.581 260.736 905.992 259.418 905.992 258.763C905.992 258.107 903.804 256.573 901.616 258.107C899.428 259.641 896.147 263.581 896.147 263.581C896.147 263.581 893.959 248.248 890.677 248.248C887.328 248.248 889.583 253.505 890.461 255.695C891.339 257.884 891.339 262.702 891.339 262.702L891.123 264.013L889.813 262.702C889.813 262.702 888.719 256.134 886.97 256.134C885.221 256.134 883.249 256.79 882.81 258.763C882.81 258.763 879.528 258.324 878.873 260.513C878.218 262.702 878.219 262.702 878.219 262.702C878.219 262.702 875.808 262.702 874.937 264.013C874.059 265.324 873.404 268.615 873.843 269.487C874.282 270.365 874.059 275.616 874.282 277.812C874.498 280.001 874.937 284.164 874.937 284.164L876.031 286.353C876.031 286.353 873.843 286.793 874.498 288.543C875.153 290.293 876.47 289.854 876.47 289.854C876.47 289.854 877.347 294.016 877.125 296.206C876.909 298.395 875.153 318.323 875.592 322.269C876.031 326.209 875.808 340.23 876.686 343.292C876.686 343.292 862.458 357.09 862.897 359.496C863.336 361.908 864.869 369.571 866.401 373.072C867.934 376.572 870.338 416.873 872.094 424.32C873.843 431.767 879.312 447.971 881.723 453.668C884.127 459.364 891.791 488.273 897.045 491.773C902.298 495.28 905.364 495.712 906.458 495.28C907.552 494.841 911.056 499.22 911.056 499.22C911.056 499.22 909.523 531.196 908.646 537.325C907.768 543.454 903.831 590.54 903.392 595.358C902.953 600.176 900.549 633.679 900.549 637.186C900.549 638.977 900.894 644.106 901.258 649.174H1045.43C1045.16 648.329 1044.87 647.539 1044.54 646.843Z" fill="#B8BABB"/>
<path d="M1123.32 649.167C1124.84 649.167 1132.91 645.633 1132.91 645.633C1132.91 645.633 1127.11 622.401 1115 595.892C1102.88 569.382 1086.74 533.527 1063.02 507.268C1063.02 507.268 1065.8 501.463 1065.8 499.186C1065.8 496.916 1067.57 491.104 1067.31 490.097C1067.06 489.09 1059.24 481.008 1057.72 481.008C1056.21 481.008 1048.39 477.981 1046.11 477.724C1043.85 477.474 1043.09 476.211 1041.32 476.461C1039.55 476.711 1036.78 476.211 1036.78 476.211C1036.78 476.211 1037.28 462.831 1036.02 457.776C1034.76 452.729 1031.98 450.201 1033.24 448.938C1034.51 447.674 1036.02 443.633 1036.02 441.613C1036.02 439.592 1037.53 437.322 1035.51 435.808C1033.49 434.294 1031.48 430.76 1029.46 430.253C1027.44 429.747 1028.45 428.483 1026.68 426.212C1024.91 423.942 1023.91 420.908 1022.64 420.408C1021.38 419.901 1019.87 419.901 1019.11 417.88C1018.36 415.86 1016.59 410.555 1016.59 410.555L1040.43 409.846V414.387C1038.8 414.772 1037.59 416.225 1037.59 417.968C1037.59 419.09 1038.1 420.083 1038.89 420.759C1038.5 422.611 1037.97 425.679 1037.97 428.665C1037.97 433.402 1037.97 453.283 1037.97 453.283C1037.97 453.283 1039.42 462.507 1039.05 464.791C1039.34 463.811 1040.01 461.283 1039.86 459.337C1039.67 456.878 1040.43 454.222 1040.43 454.222L1041.56 466.338L1042.13 464.257L1043.64 466.716L1044.78 463.878L1045.72 466.527C1045.72 466.527 1044.97 457.439 1044.78 454.215C1044.78 454.215 1047.05 463.115 1048.94 464.25C1048.94 464.25 1045.35 452.323 1044.78 448.154C1044.21 443.984 1044.4 438.119 1044.21 436.416C1044.02 434.713 1045.53 427.327 1044.97 425.814C1044.6 424.827 1044.07 422.32 1043.74 420.685C1044.49 420.009 1044.97 419.043 1044.97 417.955C1044.97 415.914 1043.31 414.265 1041.28 414.265C1041.25 414.265 1041.22 414.272 1041.19 414.272V409.805L1042.07 409.778L1044.85 409.528C1044.85 409.528 1020.87 379.485 1019.62 379.485C1018.36 379.485 940.14 378.221 940.14 378.221L961.336 407.008L957.048 418.367C957.048 418.367 953.767 424.678 955.029 426.949L948.216 426.442L946.197 423.158L939.384 422.651C939.384 422.651 938.627 423.158 937.871 422.901C937.115 422.651 931.314 420.124 930.301 419.874C929.295 419.624 926.263 417.097 925.257 416.34C924.251 415.583 923.238 409.778 922.232 407.251C921.226 404.724 917.944 398.919 914.912 399.676C914.912 399.676 912.643 396.649 914.406 393.364C916.175 390.08 915.668 384.276 915.668 384.276L919.956 383.269C919.956 383.269 922.982 373.423 921.726 366.855C920.463 360.293 918.7 361.807 917.688 361.807C916.681 361.807 918.194 356.253 918.194 356.253L916.681 352.468C916.681 352.468 914.912 348.427 915.925 348.427C916.931 348.427 915.925 346.407 915.925 346.407L930.396 339.906V344.454C928.728 344.495 927.384 345.853 927.384 347.535C927.384 348.569 927.897 349.482 928.681 350.042C928.059 351.313 926.993 353.691 927.101 354.82C927.242 356.401 928.823 364.571 928.107 369.666C927.391 374.761 928.681 380.12 928.681 380.12V375.727L930.112 380.296L930.686 379.154L931.544 380.12L932.26 379.768L934.123 380.296L934.265 378.012V375.815C934.265 375.815 935.271 380.12 937.277 380.471C937.277 380.471 933.982 372.653 934.123 370.545C934.265 368.436 934.981 363.165 934.697 361.496C934.414 359.827 934.123 355.435 934.123 354.293C934.123 353.218 933.239 350.218 932.773 349.563C933.245 349.022 933.549 348.319 933.549 347.535C933.549 346.002 932.428 344.745 930.97 344.501V339.656L940.653 335.304C940.653 335.304 902.555 299.706 894.735 297.179C894.735 297.179 838.723 321.418 828.128 331.52C828.128 331.52 852.599 353.489 857.394 357.023C857.394 357.023 856.637 360.807 856.887 362.577C857.137 364.348 858.906 362.828 858.15 365.355C857.394 367.882 855.881 368.639 856.131 369.903C856.381 371.166 856.381 371.923 856.637 372.93C856.887 373.937 857.394 375.957 856.887 378.235C856.381 380.505 860.169 388.587 861.682 391.114C863.194 393.641 865.72 392.628 865.72 392.628C865.72 392.628 869.501 401.467 870.764 403.23C872.026 405.001 874.295 405.251 874.545 407.271C874.795 409.292 874.795 409.542 874.545 412.319C874.295 415.096 873.539 416.867 873.539 416.867C873.539 416.867 863.701 419.137 861.931 419.894C860.162 420.651 859.912 421.665 855.375 422.421C850.83 423.178 848.055 423.685 845.536 424.192C843.011 424.699 837.966 426.462 836.204 426.719C834.435 426.969 831.659 425.712 829.391 427.476C827.122 429.246 822.327 430.253 820.308 434.294C818.289 438.335 816.527 439.849 816.527 439.849C816.527 439.849 810.22 423.435 809.714 415.86C809.7 415.664 809.673 415.468 809.646 415.272C809.896 414.292 809.964 412.583 809.964 412.583L811.665 417.32V412.583C811.665 412.583 812.043 414.096 815.068 415.421C815.068 415.421 812.232 410.495 810.524 405.386C808.816 400.277 808.633 398.946 808.633 398.946C808.633 398.946 812.604 407.467 814.879 409.17C814.879 409.17 807.688 394.398 807.31 390.803C806.932 387.208 803.906 381.336 803.717 378.876C803.63 377.768 803.353 376.694 803.076 375.856C803.467 375.396 803.717 374.802 803.717 374.146C803.717 372.93 802.887 371.91 801.766 371.599C800.962 368.429 799.531 363.206 798.383 361.158C802.239 359.489 806.196 357.915 808.323 357.435C805.689 357.861 797.87 359.104 795.574 359.314C792.798 359.564 779.928 362.341 776.653 362.848C773.371 363.355 763.783 366.889 761.764 366.632C759.745 366.382 755.706 367.139 752.681 367.896C749.656 368.652 733.004 374.457 730.229 374.964C727.454 375.471 722.153 376.478 720.134 377.491C718.115 378.498 712.058 381.532 712.058 381.532L734.767 375.978C734.767 375.978 736.279 379.512 736.279 380.525C736.279 381.532 737.542 385.573 737.542 388.35C737.542 391.128 738.048 398.453 738.548 400.466C739.055 402.487 739.055 402.487 739.055 402.487C739.055 402.487 734.26 412.839 735.017 417.38C735.773 421.928 735.523 428.24 743.342 433.037C743.342 433.037 746.874 440.863 746.624 441.619C746.374 442.376 744.355 442.626 744.355 442.626C744.355 442.626 741.33 437.828 736.786 437.828C732.241 437.828 725.178 438.585 722.403 439.342C719.627 440.099 716.346 441.869 715.083 442.876C713.82 443.883 712.557 445.403 712.557 445.403L711.551 446.41C711.551 446.41 707.77 440.606 705.244 439.592C702.719 438.585 698.181 436.565 695.656 436.058C693.13 435.551 690.355 433.787 688.593 432.524C686.823 431.26 684.554 430.503 682.286 430.253C680.017 430.003 679.51 429.496 677.741 428.483C675.972 427.476 673.703 426.212 672.44 425.456C671.178 424.699 671.178 421.165 671.178 420.151C671.178 419.144 668.909 416.367 668.909 416.367C668.909 416.367 668.659 409.805 669.665 407.785C670.671 405.764 673.703 398.189 673.446 392.635C673.446 392.635 675.715 392.885 676.472 390.864C677.228 388.844 677.984 384.046 677.984 382.282C677.984 380.519 677.734 376.978 676.978 375.971C676.222 374.964 674.453 373.443 674.203 372.437C673.953 371.43 674.709 368.396 674.203 366.632C673.696 364.862 673.197 361.584 672.434 360.321C671.677 359.057 671.427 339.616 671.427 339.616C671.427 339.616 679.058 339.17 684.662 338.94V341.325C683.184 341.488 682.022 342.805 682.022 344.434C682.022 345.265 682.333 346.022 682.826 346.583C682.556 348.15 682.313 350.779 682.461 354.955C682.731 362.307 683.001 370.328 682.927 374.261C682.92 374.613 682.914 374.923 682.9 375.207C682.752 378.66 682.313 382.742 682.313 382.742C682.313 382.742 683.488 374.734 683.488 372.383C683.488 370.031 684.075 383.526 684.075 383.526L685.54 384.309L686.715 378.971L686.864 383.992L688.329 384.62L687.89 373.944L689.794 384.931L690.672 384.458L691.55 384.931L690.085 376.457C690.085 376.457 693.461 382.269 695.075 382.269C695.075 382.269 690.969 378.032 689.207 370.497C687.445 362.963 688.032 355.428 687.742 353.698C687.512 352.333 688.012 347.927 687.647 345.677C687.802 345.299 687.89 344.873 687.89 344.434C687.89 342.913 686.884 341.65 685.54 341.359V338.906C687.931 338.818 689.821 338.778 690.348 338.859C692.117 339.109 690.098 337.595 690.098 337.595C690.098 337.595 674.925 328.838 674.203 328.506C670.921 326.993 666.127 329.513 664.864 329.513C663.601 329.513 612.383 333.804 609.864 334.061C607.339 334.311 597.5 334.311 595.481 334.568C593.462 334.818 593.462 334.818 593.462 334.818C593.462 334.818 599.769 341.129 603.051 342.9C606.333 344.67 615.921 352.745 615.921 352.745L617.184 352.495C617.184 352.495 618.19 373.2 618.953 375.978C619.709 378.755 621.978 382.039 621.978 382.039L618.447 384.059C618.447 384.059 618.447 388.35 619.203 389.864C619.959 391.378 621.222 394.662 621.472 396.426C621.722 398.196 623.491 400.717 624.497 400.717C625.503 400.717 627.022 400.21 627.022 400.21C627.022 400.21 628.792 404.501 629.548 406.014C630.304 407.528 629.798 410.305 629.798 411.062C629.798 411.819 625.003 416.867 624.247 418.13C623.491 419.394 622.735 421.158 622.735 421.158C622.735 421.158 610.877 423.685 609.108 424.185C607.339 424.692 597 427.212 595.988 427.212C594.981 427.212 591.193 427.719 589.681 427.969C588.168 428.219 585.393 429.483 583.374 429.99C581.355 430.497 578.829 431.76 577.067 433.017C575.298 434.281 571.766 434.531 570.004 436.551C568.234 438.572 566.222 440.842 564.703 442.613C563.19 444.383 567.985 434.788 567.478 429.99C566.972 425.192 566.972 419.887 566.472 417.11C565.966 414.333 562.434 404.987 562.184 402.974C561.934 400.953 562.94 399.946 563.19 396.662C563.44 393.378 562.184 390.857 562.94 388.58C563.697 386.31 565.209 386.053 565.209 386.053C565.209 386.053 572.475 383.35 579.768 381.215V383.803C578.478 384.032 577.499 385.114 577.499 386.418C577.499 386.931 577.654 387.404 577.918 387.81C577.546 389.222 577.06 391.256 576.837 393.135C576.439 396.432 575.784 402.514 575.649 403.778C575.588 404.366 575.412 406.001 575.217 407.69C574.987 409.636 574.737 411.664 574.595 412.272L575.649 407.582C575.649 407.582 574.46 418.732 574.069 420.766C573.67 422.793 573.542 427.233 573.542 427.233C573.542 427.233 575.257 425.334 575.257 425.841C575.257 426.347 576.311 427.868 576.311 427.868L577.627 424.827C577.627 424.827 578.816 426.854 578.816 427.361C578.816 427.868 579.606 418.745 579.606 418.745C579.606 418.745 580.923 423.685 581.983 425.591C581.983 425.591 579.741 416.975 580.133 411.393C580.531 405.818 581.713 399.48 581.449 397.831C581.186 396.182 580.923 390.743 581.051 388.965C582.192 388.634 583.029 387.634 583.029 386.425C583.029 384.992 581.854 383.836 580.382 383.776V381.046C585.487 379.579 590.498 378.437 592.949 378.741C592.949 378.741 580.078 371.166 575.034 369.146C569.99 367.125 547.031 355.259 543.999 355.009C540.974 354.759 524.322 356.273 519.271 357.536C514.227 358.8 495.05 362.084 492.275 363.598C489.499 365.112 480.667 368.646 480.667 368.646C480.667 368.646 487.987 372.43 489.749 373.193C491.518 373.95 495.3 377.234 499.338 378.748C503.376 380.262 510.189 384.809 510.189 384.809V397.939C510.189 397.939 507.92 406.021 507.164 407.535C506.408 409.048 506.408 411.826 506.158 414.603C505.908 417.38 507.421 425.206 508.683 427.983C509.946 430.76 511.708 435.808 513.228 437.578C514.74 439.349 517.266 442.626 517.516 443.383C517.766 444.14 518.022 454.242 518.022 454.242C518.022 454.242 504.679 454.56 500.796 455.019C500.796 455.019 498.514 454.222 498.399 453.188C498.284 452.161 498.629 451.134 497.717 449.647C496.806 448.161 492.808 444.16 490.755 443.707C488.702 443.248 481.281 441.653 480.478 441.876C479.681 442.106 478.648 443.593 477.966 443.816C477.284 444.045 474.542 444.728 473.401 444.843C472.26 444.958 471.571 445.985 471.571 445.985C471.571 445.985 465.865 435.93 464.494 435.017C463.124 434.105 461.753 433.416 461.071 432.848C460.389 432.274 459.018 431.362 457.877 431.132C456.736 430.902 451.941 428.388 450.571 427.936C449.2 427.476 445.547 426.334 444.865 425.537C444.183 424.739 443.264 423.82 442.008 423.482C440.752 423.138 436.41 422.225 433.331 421.651C430.245 421.077 425.221 420.509 424.425 420.164C423.628 419.82 418.489 419.482 418.374 419.022C418.259 418.563 417.577 418.448 416.889 417.421C416.207 416.394 414.606 416.279 414.606 415.137C414.606 413.995 412.776 398.912 412.324 396.284C411.865 393.655 412.668 393.425 411.412 389.54C410.156 385.654 411.068 385.769 409.36 382.911C407.644 380.052 407.644 379.255 407.192 377.086C406.733 374.917 406.166 371.261 405.936 369.544C405.706 367.828 406.733 367.49 407.422 366.801C407.793 366.429 415.991 360.544 423.506 355.124V358.253C421.953 358.442 420.744 359.753 420.744 361.361C420.744 362.591 421.46 363.645 422.487 364.166C422.007 365.909 421.325 368.835 421.21 371.727C421.028 376.261 419.914 392.635 419.826 394.851C419.738 396.899 419.732 401.602 419.441 403.487C419.738 402.115 420.312 399.372 420.38 398.547C420.474 397.439 420.103 405.021 420.103 405.021C420.103 405.021 421.676 396.878 421.676 397.155C421.676 397.432 421.859 404.095 421.859 404.095L423.061 403.724L423.891 405.67L424.263 402.805C424.263 402.805 425.188 405.028 425.464 405.21C425.741 405.393 426.484 403.264 426.484 403.264C426.484 403.264 426.943 392.439 426.943 392.716C426.943 392.993 428.145 402.521 429.07 404.001C429.07 404.001 428.24 395.304 428.334 393.27C428.334 393.27 428.983 400.392 430.367 402.521C430.367 402.521 429.347 394.013 429.442 391.972C429.536 389.938 428.888 385.127 428.706 384.019C428.523 382.911 427.875 378.282 427.686 376.43C427.504 374.579 427.227 371.808 427.227 370.328C427.227 368.848 426.95 367.463 426.768 366.625C426.619 365.956 426.228 364.571 425.89 363.767C426.585 363.192 427.045 362.327 427.045 361.348C427.045 359.739 425.836 358.428 424.283 358.239V354.563C430.441 350.124 435.938 346.143 435.985 345.995C436.1 345.65 373.53 316.627 369.303 316.404C365.076 316.174 323.635 347.711 322.602 349.88L351.26 362.334C351.26 362.334 350.578 367.929 350.349 368.734C350.119 369.531 345.554 374.903 344.643 376.275C343.731 377.647 337.904 383.472 337.681 388.384C337.681 388.384 339.052 381.985 347.384 374.444C347.384 374.444 341.219 386.783 336.425 389.871C331.631 392.959 323.98 397.068 323.068 397.412C323.068 397.412 333.798 395.128 343.164 384.614C343.164 384.614 336.871 396.04 333.136 400.446L337.451 396.04C337.451 396.04 334.48 403.237 333.569 404.609C332.657 405.981 331.171 407.582 330.375 408.265C329.578 408.947 328.659 409.062 327.403 410.663C326.147 412.265 323.176 417.178 323.176 417.178C323.176 417.178 328.085 410.893 329.112 410.778C330.138 410.663 329.571 413.177 329.227 413.867C328.882 414.549 327.971 416.955 327.059 417.407C326.147 417.867 325.344 417.522 322.609 418.435C319.868 419.347 319.868 419.347 317.241 420.719C314.614 422.09 309.705 422.55 307.99 423.117C306.275 423.692 302.621 424.604 301.825 424.259C301.028 423.915 297.712 422.658 296.571 422.658C295.43 422.658 291.088 423.455 290.636 423.455C290.176 423.455 282.755 422.658 281.27 422.428C279.784 422.198 276.131 422.084 275.449 421.631C274.767 421.171 272.025 420.833 270.999 420.833C269.973 420.833 265.746 421.631 264.145 423.003C262.545 424.374 261.978 423.915 261.978 423.462C261.978 423.003 262.322 415.921 262.552 415.576C262.781 415.232 267.116 405.981 267.461 401.406C267.461 401.406 269.061 401.291 270.547 397.75C272.032 394.209 272.485 392.952 272.944 391.925C273.403 390.898 274.659 379.931 274.085 377.417C273.511 374.903 271.458 372.619 271.458 371.93C271.458 371.247 271.114 370.673 272.032 369.646C272.944 368.619 272.606 368.159 273.403 367.477C273.795 367.139 281.182 361.422 288.563 355.719C288.637 356.523 288.711 357.455 288.758 358.381C287.543 358.658 286.625 359.868 286.625 361.321C286.625 362.233 286.996 363.037 287.563 363.591C287.117 364.159 286.591 365.233 286.543 367.186C286.462 370.605 285.888 381.323 285.888 382.803C285.888 384.282 285.558 392.317 285.315 394.446C285.071 396.567 283.917 398.791 283.917 398.791C283.917 398.791 285.477 397.986 285.956 393.195L285.558 398.237L286.706 391.675L286.543 397.77L287.529 397.399C288.596 397.953 289.17 397.581 289.17 397.581L289.825 396.75C289.825 396.75 289.906 389.729 289.906 388.067C289.906 388.067 290.723 395.824 290.642 396.567C290.561 397.304 291.054 395.277 291.054 395.277L291.628 395.554C291.628 395.554 291.547 384.931 291.216 382.803C290.899 380.735 291.047 374.714 290.973 374.153C291.095 374.714 292.56 380.742 293.019 381.694C293.019 381.694 291.54 375.227 291.459 370.146C291.399 366.591 291.061 364.753 290.669 363.882C291.439 363.355 291.952 362.409 291.952 361.327C291.952 359.672 290.757 358.327 289.285 358.327C289.238 358.327 289.197 358.341 289.157 358.341C289.103 357.422 289.015 356.428 288.873 355.482C296.321 349.725 303.661 344.062 303.661 344.062L237.094 312.755L188.226 347.373C188.226 347.373 215.398 362.456 218.025 363.828C218.025 363.828 217.228 365.659 216.31 366.341C215.398 367.024 214.824 367.943 214.824 367.943L216.654 366.916C216.654 366.916 214.257 369.544 213.913 369.889C213.568 370.234 215.743 369.207 215.743 369.207C215.743 369.207 214.601 371.95 213.69 373.775C212.778 375.599 214.601 373.2 214.601 373.2C214.601 373.2 214.601 375.14 213.919 376.626C213.237 378.113 214.379 378.457 214.379 378.457C214.379 378.457 215.175 380.741 215.29 381.201C215.405 381.661 215.749 384.059 216.087 384.059C216.431 384.059 217.228 385.776 217.113 386.114C216.999 386.458 214.601 383.715 214.372 385.654C214.142 387.594 214.372 389.195 215.628 391.939C216.884 394.682 218.255 398.453 218.714 399.365C219.173 400.277 220.652 403.136 220.881 403.595C221.111 404.055 222.711 411.136 223.852 412.853C223.852 412.853 222.482 415.711 221.455 417.766C221.455 417.766 201.474 418.225 197.024 420.509C197.024 420.509 192.345 418.908 190.171 419.367C188.003 419.827 179.778 418.57 179.441 417.995C179.096 417.421 175.214 409.542 173.276 410.109C171.338 410.684 165.166 409.994 162.087 414.677C162.087 414.677 157.522 414.448 156.489 419.36C156.489 419.36 150.324 417.529 145.867 418.218C141.417 418.901 133.307 418.448 129.424 417.989C129.424 417.989 133.307 411.934 134.219 410.332C135.13 408.731 134.678 408.163 135.36 407.474C136.042 406.791 138.101 403.933 138.669 403.244C139.243 402.561 141.181 399.014 142.437 396.959C143.693 394.905 144.489 393.986 144.489 393.189C144.489 392.391 141.863 389.533 141.403 389.418C140.944 389.303 141.748 386.445 141.977 386.107C142.207 385.762 144.03 383.363 144.145 383.019C144.26 382.674 145.745 375.363 145.975 374.106L163.808 370.301C163.896 371.565 163.977 373.234 163.937 374.903C162.417 374.991 161.209 376.086 161.209 377.43C161.209 378.167 161.573 378.829 162.154 379.295C161.81 379.863 161.31 380.89 161.141 382.316C160.864 384.593 159.494 396.392 158.872 398.554C158.251 400.71 157.569 405.447 157.495 405.683C157.427 405.92 158.042 406.285 158.042 406.285L158.798 405.622L160.243 407.237L160.452 405.92L160.864 407.177L162.033 406.879L162.789 405.744L162.998 406.521L164.301 406.879C164.301 406.879 165.746 384.235 165.746 382.134C165.746 380.755 165.625 380.005 165.544 379.647C166.435 379.214 167.05 378.39 167.05 377.43C167.05 376.106 165.882 375.031 164.396 374.91C164.43 373.775 164.335 372.254 164.004 370.261L179.191 367.024C179.191 367.024 137.973 318.58 135.117 318.35C132.26 318.12 64.5589 331.149 64.5589 331.149C64.5589 331.149 88.929 359.523 90.5024 360.476C90.5024 360.476 86.5048 371.97 87.0045 372.72C87.5042 373.47 82.0076 371.47 81.2581 373.971C80.5085 376.471 80.0089 379.971 80.2587 383.715C80.5085 387.465 81.7578 391.959 83.007 392.709C84.2562 393.459 87.0045 394.209 87.0045 394.209C87.0045 394.209 85.5055 408.204 85.2556 409.954C85.0058 411.704 85.0058 411.704 85.0058 411.704C85.0058 411.704 83.2568 412.954 82.0076 412.704C80.7584 412.454 78.7596 412.954 78.0101 413.204C77.2606 413.454 61.7769 411.204 56.287 413.954C56.287 413.954 43.8015 414.204 41.0532 414.454C38.3049 414.704 30.3166 413.704 27.3184 414.954C24.3203 416.205 16.332 417.455 15.3326 417.955C14.3332 418.455 8.3369 419.955 5.8452 422.205C3.34674 424.455 -3.1425 438.95 -3.1425 439.7C-3.1425 440.45 -0.394196 443.701 1.35472 445.701C3.10365 447.701 5.6021 448.701 5.6021 448.701C5.6021 448.701 3.85318 452.952 -2.63605 471.44C-9.13204 489.935 -15.1216 507.673 -18.8693 530.919C-22.617 554.158 -28.8564 605.143 -29.356 608.893C-29.8557 612.643 -31.8545 625.888 -32.8539 628.138L-30.8551 630.389L-32.604 634.889C-32.604 634.889 -25.6151 635.139 -23.3665 636.139C-21.1179 637.139 -16.121 636.639 -14.129 636.639C-12.1369 636.639 -12.1302 636.639 -12.1302 636.639L-10.1314 643.64L-8.38251 644.39C-8.38251 644.39 -8.82818 646.633 -9.23333 649.201H324.419C324.371 648.627 324.324 648.107 324.29 647.661C323.784 641.349 320.759 614.84 317.984 611.299L328.835 614.076C328.835 614.076 329.362 637.511 329.389 649.195H455.297C454.258 639.579 453.245 629.733 453.116 627.395C452.866 622.895 451.617 612.65 451.617 612.65C451.617 612.65 456.114 615.901 458.856 617.901C461.604 619.901 467.094 620.651 467.094 621.401C467.094 622.063 466.513 638.187 465.696 649.201H575.21C575.21 649.181 575.21 649.161 575.21 649.141C575.21 642.147 575.21 637.146 575.21 637.146L579.457 636.396C579.457 636.396 579.619 642.275 579.808 649.201H1122.46C1122.82 649.181 1123.13 649.167 1123.32 649.167ZM796.337 396.682C794.824 393.655 796.087 394.412 795.331 391.378C794.574 388.35 791.549 379.262 790.786 377.491C790.03 375.721 789.017 372.943 788.767 371.18C788.517 369.409 788.011 365.875 788.011 365.875C788.011 365.875 792.778 363.591 797.87 361.381C798.457 362.821 800.159 367.22 800.814 371.518C799.47 371.646 798.423 372.768 798.423 374.146C798.423 375.004 798.835 375.755 799.463 376.241C799.591 378.721 800.273 383.539 800.692 385.512C801.259 388.161 802.583 394.79 802.583 396.115C802.583 397.439 803.528 403.69 803.528 403.69L804.035 405.298C800.76 401.507 797.14 398.297 796.337 396.682ZM804.987 406.433L804.285 402.555C804.285 402.555 805.102 405.014 806.06 407.812C805.716 407.346 805.358 406.886 804.987 406.433Z" fill="black"/>
</svg>
